<svg
  width="38"
  height="38"
  viewBox="0 0 38 38"
  fill="none"
  xmlns="http://www.w3.org/2000/svg"
>
  <title>Unchained Mark</title>
  <g clip-path="url(#clip0_879_67488)">
    <path
      d="M19 38C29.4934 38 38 29.4934 38 19C38 8.50659 29.4934 0 19 0C8.50659 0 0 8.50659 0 19C0 29.4934 8.50659 38 19 38Z"
      fill="white"
    />
    <path
      d="M14.6064 25.6974C12.9724 28.1722 11.7184 30.5614 10.7637 32.7037C13.1672 34.1524 15.9887 34.9837 19.0002 34.9837C27.8304 34.9837 34.9887 27.8254 34.9887 18.9952C34.9887 18.7054 34.9792 18.4157 34.9649 18.1259H33.1599C27.2699 18.1259 19.6984 17.9787 14.6064 25.6927V25.6974Z"
      fill="#0095D6"
    />
    <path
      d="M34.8177 16.6725H25.7262C14.7395 16.6725 8.45997 21.5365 4.90697 26.5572C3.69572 24.3057 3.01172 21.7312 3.01172 19C3.01172 10.1697 10.17 3.01147 19.0002 3.01147C27.0372 3.01147 33.692 8.94422 34.8177 16.6725Z"
      fill="#002851"
    />
    <path
      d="M19.1233 7.10128L19.4083 7.98003C19.7218 8.93478 20.4723 9.68528 21.4271 9.99878L22.3058 10.2838C22.4008 10.317 22.4008 10.45 22.3058 10.4785L21.4271 10.7635C20.4723 11.077 19.7218 11.8275 19.4083 12.7823L19.1233 13.661C19.0901 13.756 18.9571 13.756 18.9286 13.661L18.6436 12.7823C18.3301 11.8275 17.5796 11.077 16.6248 10.7635L15.7461 10.4785C15.6511 10.4453 15.6511 10.3123 15.7461 10.2838L16.6248 9.99878C17.5796 9.68528 18.3301 8.93478 18.6436 7.98003L18.9286 7.10128C18.9618 7.00628 19.0948 7.00628 19.1233 7.10128V7.10128Z"
      fill="white"
    />
  </g>
  <defs>
    <clipPath id="clip0_879_67488">
      <rect width="38" height="38" fill="white" />
    </clipPath>
  </defs>
</svg>
