<svg version="1" xmlns="http://www.w3.org/2000/svg" width="258.667" height="258.667" viewBox="0 0 194 194"><path d="M47.8 24.1L0 48v97l48.3 24.1 48.2 24.1 48.3-24.1L193 145l.1-9.3V50.8c-.1-2.7-2.5-4-48.1-26.8C118.6 10.8 96.7 0 96.3.1c-.5 0-22.3 10.8-48.5 24zm26 33l-.3 23.5-3.7 7.5c-11.5 23.2-38.6 33.6-45.4 17.4-1.2-2.9-1.7-23-1.5-53.5l.1-5.5 5.2-2.5c2.9-1.4 5.7-2.5 6.3-2.5.6 0 1 9.8 1 26.7 0 24.2.2 26.8 1.8 28.6 5.3 5.8 16.4.8 21.8-9.8 2.3-4.4 2.4-5.2 2.4-32V27.5l6-3.1 6-3.1.3 6.1c.2 3.4.2 16.7 0 29.7zm81.7-5.3l28.1 14-.1 6.1c0 3.4-.1 6.1-.2 6.1s-12.4-6.1-27.3-13.5S127.9 51 126.7 51c-6.2 0-9.2 6.9-6.3 14.3 3.2 8.4 6.3 10.6 35.3 25.1l27.1 13.6.4 5.1c.1 2.8 0 5.5-.3 6.1-.4.5-12.6-5.1-28.5-13.1-28-14.1-32.4-16.9-38.8-25.4-11.1-14.5-11.8-32.7-1.6-38 6.8-3.5 10.7-2.3 41.5 13.1zM127 122.9c18.2 5.7 23.3 16.8 11.8 25.4-1.8 1.4-15 8.3-29.3 15.5l-26 13-5.9-3c-3.2-1.6-5.5-3.3-5-3.8.5-.4 11.5-6.1 24.4-12.5 25.9-12.9 30-15.5 30-18.8-.1-5.8-6.6-9.1-18-9.2h-8.5l-27.7 14-27.6 13.9-6.1-2.9c-3.4-1.6-5.8-3.2-5.4-3.6 1.1-1 52.2-26.4 55.9-27.8 8.7-3.3 27.1-3.4 37.4-.2z"/></svg>